<svg xmlns="http://www.w3.org/2000/svg" viewBox="0 0 96 96" role="img" aria-labelledby="title">
  <title id="title">Ruban dark-surface Ruler Angle R mark</title>
  <rect width="96" height="96" fill="#101114"/>
  <path fill="#ffffff" fill-rule="evenodd" d="M18 13h36a26 20 0 0 1 0 40l27 31H70L33 41H31v43H18V13Zm0 13h36a15 7.5 0 0 1 0 15H33L18 28V26Zm0 22h8v3h-8v-3Zm0 9h8v3h-8v-3Zm0 9h8v3h-8v-3Z"/>
  <path fill="#4c8dff" fill-rule="evenodd" d="M34 46 45 59H34V46ZM35 49h2v1h-2v-1Zm0 4h4v1h-4v-1Z"/>
</svg>
